<?xml version="1.0" standalone="no"?>
<!DOCTYPE svg PUBLIC "-//W3C//DTD SVG 20010904//EN"
 "http://www.w3.org/TR/2001/REC-SVG-20010904/DTD/svg10.dtd">
<svg version="1.0" xmlns="http://www.w3.org/2000/svg"
 width="300.000000pt" height="300.000000pt" viewBox="0 0 300.000000 300.000000"
 preserveAspectRatio="xMidYMid meet">
<metadata>
Created by potrace 1.11, written by Peter Selinger 2001-2013
</metadata>
<g transform="translate(0.000000,300.000000) scale(0.100000,-0.100000)"
fill="#000000" stroke="none">
<path d="M1022 2518 l-482 -482 2 -276 3 -275 85 0 85 0 2 230 c1 127 2 233 2
238 1 4 177 183 392 398 l392 392 382 -384 382 -384 -1 -242 c-1 -154 3 -244
9 -246 6 -2 48 -3 95 -3 l85 1 3 280 2 280 -478 478 -478 478 -482 -483z"/>
<path d="M996 1770 c-2 -3 -3 -67 -3 -142 -1 -94 3 -138 11 -141 9 -3 157 -2
179 2 4 0 7 23 7 50 l0 50 300 0 300 1 1 -22 c0 -13 2 -36 2 -53 l2 -30 90 0
90 0 0 145 0 145 -488 0 c-269 0 -490 -2 -491 -5z"/>
<path d="M540 360 l0 -360 957 2 958 3 0 355 -1 355 -88 3 c-49 2 -92 -1 -95
-7 -3 -5 -6 -124 -5 -265 l0 -256 -40 0 c-300 -3 -1500 0 -1503 4 -3 3 -5 122
-5 265 l1 261 -90 0 -89 0 0 -360z"/>
<path d="M993 550 l0 -170 491 2 491 3 1 168 0 168 -90 -3 -91 -3 -1 -45 c-1
-25 -2 -57 -3 -72 l-1 -26 -300 0 c-342 0 -301 -13 -302 96 l0 52 -97 0 -98 0
0 -170z"/>
</g>
</svg>
